<svg xmlns="http://www.w3.org/2000/svg" xmlns:xlink="http://www.w3.org/1999/xlink" version="1.1" id="Layer_1" x="0px" y="0px" width="100px" height="100px" viewBox="0 0 100 100" enable-background="new 0 0 100 100" xml:space="preserve">
<path d="M32.381,67.742C40.613,62.975,39,57.65,39,55c-10.09,0-11.351-4-21-4c19.617-7.517-0.169-46,31-46s11.383,38.483,31,46  c-9.649,0-10.91,4-21,4c0,2.643-1.601,7.942,6.547,12.699c-1.693,3.289-5.966,8.076-16.503,8.076  C38.559,75.775,34.169,71.041,32.381,67.742z M81,73c-5.023-1.063-8.902-2.271-11.919-3.553c-2.211,4.293-7.54,10.328-20.037,10.328  c-12.471,0-17.91-6.014-20.203-10.294C25.835,70.75,21.979,71.946,17,73c0,0-12,2.96-12,22h44h44C93,75.96,81,73,81,73z"/>
</svg>