<svg xmlns="http://www.w3.org/2000/svg" xmlns:xlink="http://www.w3.org/1999/xlink" version="1.1" id="Layer_1" x="0px" y="0px" width="100px" height="100px" viewBox="0 0 100 100" enable-background="new 0 0 100 100" xml:space="preserve">
<path fill="#555" d="M97,95H51H5c0-19.04,5.654-22.373,5.654-22.373c6.85-2.645,20.766-7.104,23.53-9.248l1.113-1.361  c0,0,6.25,9.224,10.232,30.537l3.322-24.939L46.535,63.9c-10.567-2.521-9.256-6.336-9.256-6.336c0-2.143,0.073-6.125,0.073-6.125  c-2.084-3.347-3.072-8.258-3.072-8.258c-0.962-0.975-2.166-0.127-2.553-2.951c-0.387-2.824-0.289-6.073-0.594-8.833  c-0.306-2.76,1.597-2.086,1.597-2.086s-0.487-4.798,1.637-13.528c0.789-3.261,1.475-5.695,4.17-7.422C42.174,6.034,44.451,5,51,5  s8.826,1.034,12.461,3.361c2.696,1.727,3.382,4.161,4.171,7.422c2.124,8.73,1.638,13.528,1.638,13.528s1.902-0.674,1.596,2.086  c-0.305,2.76-0.207,6.009-0.594,8.833s-1.59,1.977-2.553,2.951c0,0-0.987,4.911-3.071,8.258c0,0,0.073,3.982,0.073,6.125  c0,0,1.311,3.814-9.256,6.336l-2.316,3.715l3.322,24.939c3.982-21.313,10.232-30.537,10.232-30.537l1.112,1.361  c2.765,2.145,16.681,6.604,23.53,9.248C91.346,72.627,97,75.96,97,95z"/>
</svg>