<?xml version="1.0" encoding="utf-8"?>
<!-- Generator: Adobe Illustrator 15.1.0, SVG Export Plug-In . SVG Version: 6.00 Build 0)  -->
<!DOCTYPE svg PUBLIC "-//W3C//DTD SVG 1.1//EN" "http://www.w3.org/Graphics/SVG/1.1/DTD/svg11.dtd">
<svg version="1.1" id="woman" xmlns="http://www.w3.org/2000/svg" xmlns:xlink="http://www.w3.org/1999/xlink" x="0px" y="0px"
	 width="98.883px" height="100px" viewBox="0 0 98.883 100" enable-background="new 0 0 98.883 100" xml:space="preserve">
<path fill="#010101" d="M98.882,100c0.039-0.204-1.404-10.788-1.418-11.002c0,0-2.69-6.826-6.942-7.52
	c-4.253-0.7-9.716-2.183-12-3.908c-1.336-1.015-5.688-2.775-7.703-3.507c-0.941-0.341-2.551-3.122-3.104-4.378
	c-0.559-1.256-4.395-3.796-5.373-3.937l-0.153-5.23l11.104-3.453c0,0,2.861-1.327,3.139-1.327c0.28,0-1.327-2.104-1.534-2.669
	c-0.209-0.56-1.256-4.376-1.256-4.376s3.749,4.583,5.649,5.441c0,0-3.733-7.008-4.844-10.914
	c-1.117-3.907-1.851-10.009-1.851-10.566c0-0.561-2.301-16.95-3.557-19.669c-1.256-2.724-2.959-6.417-5.876-8.231
	c-2.915-1.814-7.237-4.396-13.447-4.741C49.623,0.01,49.53,0.01,49.439,0c-0.093,0.008-0.187,0.008-0.281,0.013
	c-6.205,0.346-10.527,2.929-13.443,4.741c-2.912,1.813-4.617,5.508-5.874,8.231c-1.255,2.719-3.558,19.108-3.558,19.669
	c0,0.557-0.651,6.906-1.767,10.809c-1.116,3.908-4.928,10.67-4.928,10.67c1.902-0.857,5.648-5.441,5.648-5.441
	s-1.35,4.189-1.562,4.748c-0.211,0.562-1.505,2.298-1.225,2.298c0.276,0,3.139,1.327,3.139,1.327l11.107,3.453l-0.157,5.23
	c-0.975,0.141-4.811,2.683-5.37,3.937c-0.56,1.256-2.166,4.037-3.105,4.378c-2.02,0.731-6.367,2.492-7.704,3.507
	c-2.289,1.726-7.739,3.208-11.996,3.908c-4.254,0.693-6.942,7.042-6.942,7.042C1.405,88.736-0.036,99.796,0,100H98.882z"/>
</svg>
